<mxfile host="app.diagrams.net" modified="2024-03-26T09:50:46.749Z" agent="Mozilla/5.0 (Macintosh; Intel Mac OS X 10_15_7) AppleWebKit/537.36 (KHTML, like Gecko) Chrome/123.0.0.0 Safari/537.36" etag="4XQg12D5Tq9BNMgtRqCN" version="24.1.0" type="github">
  <diagram name="第 1 页" id="gPpqprnMWn_5t946RDb_">
    <mxGraphModel dx="984" dy="564" grid="1" gridSize="10" guides="1" tooltips="1" connect="1" arrows="1" fold="1" page="1" pageScale="1" pageWidth="827" pageHeight="1169" math="0" shadow="0">
      <root>
        <mxCell id="0" />
        <mxCell id="1" parent="0" />
        <mxCell id="BFZzKgCnbcVm8hcBajh6-37" value="" style="rounded=0;whiteSpace=wrap;html=1;fillColor=#dae8fc;strokeColor=#6c8ebf;" vertex="1" parent="1">
          <mxGeometry x="20" y="40" width="510" height="470" as="geometry" />
        </mxCell>
        <mxCell id="BFZzKgCnbcVm8hcBajh6-1" value="" style="rounded=1;whiteSpace=wrap;html=1;fillColor=#ffe6cc;strokeColor=#d79b00;" vertex="1" parent="1">
          <mxGeometry x="114" y="80" width="120" height="400" as="geometry" />
        </mxCell>
        <mxCell id="BFZzKgCnbcVm8hcBajh6-22" value="" style="edgeStyle=orthogonalEdgeStyle;rounded=0;orthogonalLoop=1;jettySize=auto;html=1;" edge="1" parent="1">
          <mxGeometry relative="1" as="geometry">
            <mxPoint x="588" y="360" as="sourcePoint" />
            <mxPoint x="474" y="360" as="targetPoint" />
          </mxGeometry>
        </mxCell>
        <mxCell id="BFZzKgCnbcVm8hcBajh6-24" value="加载低码页面" style="edgeLabel;html=1;align=center;verticalAlign=middle;resizable=0;points=[];" vertex="1" connectable="0" parent="BFZzKgCnbcVm8hcBajh6-22">
          <mxGeometry x="0.0351" y="2" relative="1" as="geometry">
            <mxPoint as="offset" />
          </mxGeometry>
        </mxCell>
        <mxCell id="BFZzKgCnbcVm8hcBajh6-51" style="edgeStyle=orthogonalEdgeStyle;rounded=0;orthogonalLoop=1;jettySize=auto;html=1;entryX=0;entryY=0.5;entryDx=0;entryDy=0;" edge="1" parent="1" source="BFZzKgCnbcVm8hcBajh6-3" target="BFZzKgCnbcVm8hcBajh6-42">
          <mxGeometry relative="1" as="geometry" />
        </mxCell>
        <mxCell id="BFZzKgCnbcVm8hcBajh6-55" value="上线部署" style="edgeLabel;html=1;align=center;verticalAlign=middle;resizable=0;points=[];" vertex="1" connectable="0" parent="BFZzKgCnbcVm8hcBajh6-51">
          <mxGeometry x="-0.0698" relative="1" as="geometry">
            <mxPoint y="1" as="offset" />
          </mxGeometry>
        </mxCell>
        <mxCell id="BFZzKgCnbcVm8hcBajh6-3" value="" style="rounded=1;whiteSpace=wrap;html=1;fillColor=#1ba1e2;fontColor=#ffffff;strokeColor=#006EAF;" vertex="1" parent="1">
          <mxGeometry x="588" y="112" width="302" height="320" as="geometry" />
        </mxCell>
        <mxCell id="BFZzKgCnbcVm8hcBajh6-7" value="&lt;b&gt;业务系统(本地开发)&lt;/b&gt;" style="text;html=1;align=center;verticalAlign=middle;whiteSpace=wrap;rounded=0;fontColor=#FFFFFF;" vertex="1" parent="1">
          <mxGeometry x="618" y="132" width="60" height="30" as="geometry" />
        </mxCell>
        <mxCell id="BFZzKgCnbcVm8hcBajh6-8" value="页面" style="rounded=0;whiteSpace=wrap;html=1;fillColor=#E6E6E6;" vertex="1" parent="1">
          <mxGeometry x="608" y="175" width="80" height="37" as="geometry" />
        </mxCell>
        <mxCell id="BFZzKgCnbcVm8hcBajh6-9" value="页面" style="rounded=0;whiteSpace=wrap;html=1;fillColor=#E6E6E6;" vertex="1" parent="1">
          <mxGeometry x="700" y="175" width="80" height="37" as="geometry" />
        </mxCell>
        <mxCell id="BFZzKgCnbcVm8hcBajh6-10" value="页面" style="rounded=0;whiteSpace=wrap;html=1;fillColor=#E6E6E6;" vertex="1" parent="1">
          <mxGeometry x="790" y="175" width="80" height="37" as="geometry" />
        </mxCell>
        <mxCell id="BFZzKgCnbcVm8hcBajh6-11" value="低码页面" style="rounded=0;whiteSpace=wrap;html=1;fillColor=#66FF66;" vertex="1" parent="1">
          <mxGeometry x="700" y="224" width="80" height="37" as="geometry" />
        </mxCell>
        <mxCell id="BFZzKgCnbcVm8hcBajh6-12" value="页面" style="rounded=0;whiteSpace=wrap;html=1;fillColor=#E6E6E6;" vertex="1" parent="1">
          <mxGeometry x="608" y="224" width="80" height="37" as="geometry" />
        </mxCell>
        <mxCell id="BFZzKgCnbcVm8hcBajh6-13" value="页面" style="rounded=0;whiteSpace=wrap;html=1;fillColor=#E6E6E6;" vertex="1" parent="1">
          <mxGeometry x="790" y="224" width="80" height="37" as="geometry" />
        </mxCell>
        <mxCell id="BFZzKgCnbcVm8hcBajh6-14" value="Sentry/埋点/上报" style="rounded=0;whiteSpace=wrap;html=1;fillColor=#E6E6E6;" vertex="1" parent="1">
          <mxGeometry x="609" y="327" width="262" height="37" as="geometry" />
        </mxCell>
        <mxCell id="BFZzKgCnbcVm8hcBajh6-19" style="edgeStyle=orthogonalEdgeStyle;rounded=0;orthogonalLoop=1;jettySize=auto;html=1;exitX=1;exitY=0.5;exitDx=0;exitDy=0;entryX=0;entryY=0.5;entryDx=0;entryDy=0;" edge="1" parent="1">
          <mxGeometry relative="1" as="geometry">
            <mxPoint x="474" y="200" as="sourcePoint" />
            <mxPoint x="588" y="200" as="targetPoint" />
          </mxGeometry>
        </mxCell>
        <mxCell id="BFZzKgCnbcVm8hcBajh6-20" value="生成低码页面" style="edgeLabel;html=1;align=center;verticalAlign=middle;resizable=0;points=[];" vertex="1" connectable="0" parent="BFZzKgCnbcVm8hcBajh6-19">
          <mxGeometry x="-0.0127" y="2" relative="1" as="geometry">
            <mxPoint y="1" as="offset" />
          </mxGeometry>
        </mxCell>
        <mxCell id="BFZzKgCnbcVm8hcBajh6-16" value="" style="rounded=1;whiteSpace=wrap;html=1;fillColor=#fff2cc;strokeColor=#d6b656;" vertex="1" parent="1">
          <mxGeometry x="354" y="80" width="120" height="400" as="geometry" />
        </mxCell>
        <mxCell id="BFZzKgCnbcVm8hcBajh6-26" value="" style="endArrow=classic;startArrow=classic;html=1;rounded=0;entryX=0;entryY=0.5;entryDx=0;entryDy=0;exitX=1;exitY=0.5;exitDx=0;exitDy=0;" edge="1" parent="1" source="BFZzKgCnbcVm8hcBajh6-1" target="BFZzKgCnbcVm8hcBajh6-16">
          <mxGeometry width="50" height="50" relative="1" as="geometry">
            <mxPoint x="234" y="285" as="sourcePoint" />
            <mxPoint x="284" y="235" as="targetPoint" />
          </mxGeometry>
        </mxCell>
        <mxCell id="BFZzKgCnbcVm8hcBajh6-27" value="通信" style="edgeLabel;html=1;align=center;verticalAlign=middle;resizable=0;points=[];" vertex="1" connectable="0" parent="BFZzKgCnbcVm8hcBajh6-26">
          <mxGeometry x="0.0167" relative="1" as="geometry">
            <mxPoint y="1" as="offset" />
          </mxGeometry>
        </mxCell>
        <mxCell id="BFZzKgCnbcVm8hcBajh6-28" value="低代码Brige" style="text;html=1;align=center;verticalAlign=middle;whiteSpace=wrap;rounded=0;" vertex="1" parent="1">
          <mxGeometry x="369" y="100" width="90" height="30" as="geometry" />
        </mxCell>
        <mxCell id="BFZzKgCnbcVm8hcBajh6-29" value="web服务" style="rounded=1;whiteSpace=wrap;html=1;fillColor=#e1d5e7;strokeColor=#9673a6;" vertex="1" parent="1">
          <mxGeometry x="374" y="170" width="86" height="37" as="geometry" />
        </mxCell>
        <mxCell id="BFZzKgCnbcVm8hcBajh6-30" value="socket通信" style="rounded=1;whiteSpace=wrap;html=1;fillColor=#e1d5e7;strokeColor=#9673a6;" vertex="1" parent="1">
          <mxGeometry x="374" y="261.5" width="86" height="37" as="geometry" />
        </mxCell>
        <mxCell id="BFZzKgCnbcVm8hcBajh6-31" value="出码模块" style="rounded=1;whiteSpace=wrap;html=1;fillColor=#e1d5e7;strokeColor=#9673a6;" vertex="1" parent="1">
          <mxGeometry x="374" y="360" width="86" height="37" as="geometry" />
        </mxCell>
        <mxCell id="BFZzKgCnbcVm8hcBajh6-33" value="设计器" style="text;html=1;align=center;verticalAlign=middle;whiteSpace=wrap;rounded=0;" vertex="1" parent="1">
          <mxGeometry x="139" y="100" width="60" height="30" as="geometry" />
        </mxCell>
        <mxCell id="BFZzKgCnbcVm8hcBajh6-34" value="入料" style="rounded=1;whiteSpace=wrap;html=1;fillColor=#d5e8d4;strokeColor=#82b366;" vertex="1" parent="1">
          <mxGeometry x="134" y="167" width="80" height="40" as="geometry" />
        </mxCell>
        <mxCell id="BFZzKgCnbcVm8hcBajh6-35" value="编排" style="rounded=1;whiteSpace=wrap;html=1;fillColor=#d5e8d4;strokeColor=#82b366;" vertex="1" parent="1">
          <mxGeometry x="134" y="255" width="80" height="40" as="geometry" />
        </mxCell>
        <mxCell id="BFZzKgCnbcVm8hcBajh6-36" value="渲染" style="rounded=1;whiteSpace=wrap;html=1;fillColor=#d5e8d4;strokeColor=#82b366;" vertex="1" parent="1">
          <mxGeometry x="134" y="357.5" width="80" height="40" as="geometry" />
        </mxCell>
        <mxCell id="BFZzKgCnbcVm8hcBajh6-39" value="&lt;font style=&quot;font-size: 14px;&quot;&gt;&lt;b&gt;低代码系统(vscode插件)&lt;/b&gt;&lt;/font&gt;" style="text;html=1;align=center;verticalAlign=middle;whiteSpace=wrap;rounded=0;" vertex="1" parent="1">
          <mxGeometry x="26" y="46" width="90" height="30" as="geometry" />
        </mxCell>
        <mxCell id="BFZzKgCnbcVm8hcBajh6-42" value="" style="rounded=1;whiteSpace=wrap;html=1;fillColor=#d0cee2;strokeColor=#56517e;" vertex="1" parent="1">
          <mxGeometry x="976" y="117" width="120" height="310" as="geometry" />
        </mxCell>
        <mxCell id="BFZzKgCnbcVm8hcBajh6-43" value="&lt;b&gt;发布系统&lt;/b&gt;" style="text;html=1;align=center;verticalAlign=middle;whiteSpace=wrap;rounded=0;fontColor=#FFFFFF;" vertex="1" parent="1">
          <mxGeometry x="1005" y="137" width="60" height="30" as="geometry" />
        </mxCell>
        <mxCell id="BFZzKgCnbcVm8hcBajh6-52" style="edgeStyle=orthogonalEdgeStyle;rounded=0;orthogonalLoop=1;jettySize=auto;html=1;" edge="1" parent="1" source="BFZzKgCnbcVm8hcBajh6-46" target="BFZzKgCnbcVm8hcBajh6-50">
          <mxGeometry relative="1" as="geometry" />
        </mxCell>
        <mxCell id="BFZzKgCnbcVm8hcBajh6-46" value="CI" style="rounded=0;whiteSpace=wrap;html=1;fillColor=#b0e3e6;strokeColor=#0e8088;" vertex="1" parent="1">
          <mxGeometry x="995" y="229" width="80" height="42" as="geometry" />
        </mxCell>
        <mxCell id="BFZzKgCnbcVm8hcBajh6-50" value="CD" style="rounded=0;whiteSpace=wrap;html=1;fillColor=#b0e3e6;strokeColor=#0e8088;" vertex="1" parent="1">
          <mxGeometry x="995" y="367" width="80" height="37" as="geometry" />
        </mxCell>
        <mxCell id="BFZzKgCnbcVm8hcBajh6-54" value="公共组件" style="rounded=0;whiteSpace=wrap;html=1;fillColor=#E6E6E6;" vertex="1" parent="1">
          <mxGeometry x="608" y="272" width="262" height="37" as="geometry" />
        </mxCell>
      </root>
    </mxGraphModel>
  </diagram>
</mxfile>
